<svg width="21" height="21" viewBox="0 0 21 21" fill="none" xmlns="http://www.w3.org/2000/svg">
<g opacity="0.8">
<path d="M5.125 1.70703L2.5625 5.1237V17.082C2.5625 17.5351 2.74248 17.9696 3.06286 18.29C3.38323 18.6104 3.81776 18.7904 4.27083 18.7904H16.2292C16.6822 18.7904 17.1168 18.6104 17.4371 18.29C17.7575 17.9696 17.9375 17.5351 17.9375 17.082V5.1237L15.375 1.70703H5.125Z" stroke="white" stroke-linecap="round" stroke-linejoin="round"/>
<path d="M2.5625 5.125H17.9375" stroke="white" stroke-linecap="round" stroke-linejoin="round"/>
<path d="M13.6693 8.54297C13.6693 9.44913 13.3093 10.3182 12.6686 10.9589C12.0278 11.5997 11.1588 11.9596 10.2526 11.9596C9.34645 11.9596 8.47741 11.5997 7.83666 10.9589C7.19591 10.3182 6.83594 9.44913 6.83594 8.54297" stroke="white" stroke-linecap="round" stroke-linejoin="round"/>
</g>
</svg>
