<svg width="21" height="20" viewBox="0 0 21 20" fill="none" xmlns="http://www.w3.org/2000/svg">
<path d="M14.3776 1.63265C15.5683 1.63265 16.7103 2.10568 17.5523 2.94768C18.3943 3.78968 18.8673 4.93168 18.8673 6.12245V13.8776C18.8673 15.0683 18.3943 16.2103 17.5523 17.0523C16.7103 17.8943 15.5683 18.3673 14.3776 18.3673H6.62245C5.43168 18.3673 4.28968 17.8943 3.44768 17.0523C2.60568 16.2103 2.13265 15.0683 2.13265 13.8776V6.12245C2.13265 4.93168 2.60568 3.78968 3.44768 2.94768C4.28968 2.10568 5.43168 1.63265 6.62245 1.63265H14.3776ZM14.3776 0H6.62245C5.00016 0.00484508 3.44571 0.651443 2.29858 1.79858C1.15144 2.94571 0.504845 4.50016 0.5 6.12245V13.8776C0.504845 15.4998 1.15144 17.0543 2.29858 18.2014C3.44571 19.3486 5.00016 19.9952 6.62245 20H14.3776C15.9998 19.9952 17.5543 19.3486 18.7014 18.2014C19.8486 17.0543 20.4952 15.4998 20.5 13.8776V6.12245C20.4952 4.50016 19.8486 2.94571 18.7014 1.79858C17.5543 0.651443 15.9998 0.00484508 14.3776 0Z" fill="white"/>
<path d="M15.8347 3.91837C15.6034 3.91837 15.3773 3.98695 15.185 4.11544C14.9927 4.24394 14.8428 4.42657 14.7543 4.64025C14.6658 4.85393 14.6426 5.08905 14.6878 5.31589C14.7329 5.54273 14.8442 5.7511 15.0078 5.91464C15.1713 6.07818 15.3797 6.18955 15.6065 6.23467C15.8334 6.27979 16.0685 6.25664 16.2822 6.16813C16.4959 6.07962 16.6785 5.92974 16.807 5.73743C16.9355 5.54513 17.0041 5.31904 17.0041 5.08776C17.0041 4.93419 16.9738 4.78213 16.915 4.64025C16.8563 4.49837 16.7701 4.36946 16.6616 4.26087C16.553 4.15229 16.4241 4.06615 16.2822 4.00738C16.1403 3.94861 15.9882 3.91837 15.8347 3.91837Z" fill="white"/>
<path d="M10.5551 6.87142C11.2689 6.87102 11.9668 7.08234 12.5604 7.47866C13.1541 7.87497 13.6169 8.43847 13.8902 9.09786C14.1636 9.75725 14.2352 10.4829 14.0961 11.183C13.9569 11.8831 13.6132 12.5262 13.1085 13.0309C12.6037 13.5357 11.9606 13.8794 11.2605 14.0185C10.5604 14.1577 9.83478 14.086 9.17539 13.8127C8.516 13.5394 7.9525 13.0766 7.55619 12.4829C7.15987 11.8892 6.94855 11.1913 6.94895 10.4775C6.95057 9.52164 7.33102 8.60535 8.00695 7.92942C8.68288 7.25349 9.59917 6.87304 10.5551 6.87142ZM10.5551 5.23877C9.51889 5.24079 8.50656 5.54992 7.64601 6.1271C6.78546 6.70429 6.11532 7.52362 5.72028 8.48154C5.32524 9.43947 5.22303 10.493 5.42656 11.509C5.6301 12.525 6.13024 13.4579 6.86379 14.1897C7.59734 14.9216 8.53137 15.4195 9.54785 15.6207C10.5643 15.8218 11.6176 15.7172 12.5746 15.3199C13.5316 14.9226 14.3494 14.2506 14.9246 13.3887C15.4997 12.5268 15.8065 11.5137 15.8061 10.4775C15.8058 9.78862 15.6697 9.10651 15.4056 8.47024C15.1415 7.83396 14.7545 7.25601 14.2668 6.76944C13.7791 6.28286 13.2002 5.89722 12.5633 5.63458C11.9264 5.37193 11.244 5.23743 10.5551 5.23877Z" fill="white"/>
</svg>
