<svg width="146" height="23" viewBox="0 0 146 23" fill="none" xmlns="http://www.w3.org/2000/svg">
<path d="M0.804 17V14.514L10.506 3.514L12.112 5.054H1.376V1.6H14.73V4.064L5.05 15.086L3.444 13.7H14.972V17H0.804ZM25.7896 17.22C24.3083 17.22 23.0103 16.9633 21.8956 16.45C20.7956 15.922 19.9376 15.2033 19.3216 14.294C18.7203 13.3847 18.4196 12.358 18.4196 11.214C18.4196 10.29 18.5956 9.454 18.9476 8.706C19.3143 7.94333 19.813 7.298 20.4436 6.77C21.0743 6.22733 21.8076 5.80933 22.6436 5.516C23.4943 5.22267 24.3963 5.076 25.3496 5.076C26.2883 5.076 27.1536 5.22267 27.9456 5.516C28.7523 5.80933 29.449 6.22 30.0356 6.748C30.637 7.26133 31.0916 7.87733 31.3996 8.596C31.7223 9.31467 31.869 10.1067 31.8396 10.972L31.8176 12.006H20.7956L20.2896 9.894H28.9576L28.5836 10.356V9.916C28.5396 9.52 28.371 9.17533 28.0776 8.882C27.7843 8.58867 27.403 8.36133 26.9336 8.2C26.479 8.024 25.9656 7.936 25.3936 7.936C24.6896 7.936 24.059 8.046 23.5016 8.266C22.9443 8.486 22.5043 8.82333 22.1816 9.278C21.8736 9.718 21.7196 10.2753 21.7196 10.95C21.7196 11.5807 21.903 12.1453 22.2696 12.644C22.6363 13.128 23.1643 13.5167 23.8536 13.81C24.543 14.0887 25.3496 14.228 26.2736 14.228C27.1243 14.228 27.8283 14.1327 28.3856 13.942C28.943 13.7367 29.4123 13.502 29.7936 13.238L31.3556 15.526C30.857 15.8927 30.307 16.2007 29.7056 16.45C29.1043 16.6993 28.4663 16.89 27.7916 17.022C27.1316 17.154 26.4643 17.22 25.7896 17.22ZM41.7242 17.22C40.3602 17.22 39.1428 17.0367 38.0722 16.67C37.0015 16.3033 36.1362 15.768 35.4762 15.064L37.6322 13.172C38.1308 13.6413 38.7468 14.008 39.4802 14.272C40.2282 14.5213 41.0275 14.646 41.8782 14.646C42.1422 14.646 42.3988 14.6313 42.6482 14.602C42.8975 14.5727 43.1175 14.514 43.3082 14.426C43.5135 14.338 43.6675 14.2353 43.7702 14.118C43.8875 13.986 43.9462 13.8393 43.9462 13.678C43.9462 13.3847 43.7482 13.1573 43.3522 12.996C43.1028 12.908 42.7655 12.8273 42.3402 12.754C41.9148 12.666 41.4602 12.578 40.9762 12.49C40.1108 12.3287 39.3555 12.1527 38.7102 11.962C38.0648 11.7713 37.5295 11.5147 37.1042 11.192C36.7082 10.884 36.4002 10.532 36.1802 10.136C35.9748 9.74 35.8722 9.26333 35.8722 8.706C35.8722 8.134 36.0188 7.628 36.3122 7.188C36.6202 6.748 37.0308 6.36667 37.5442 6.044C38.0722 5.72133 38.6735 5.47933 39.3482 5.318C40.0228 5.15667 40.7415 5.076 41.5042 5.076C42.2228 5.076 42.9342 5.142 43.6382 5.274C44.3422 5.406 45.0168 5.604 45.6622 5.868C46.3075 6.132 46.8722 6.462 47.3562 6.858L45.5522 8.992C45.2148 8.74267 44.8115 8.51533 44.3422 8.31C43.8875 8.09 43.3962 7.92133 42.8682 7.804C42.3548 7.672 41.8415 7.606 41.3282 7.606C41.0495 7.606 40.7928 7.62067 40.5582 7.65C40.3235 7.67933 40.1035 7.73067 39.8982 7.804C39.7075 7.87733 39.5535 7.97267 39.4362 8.09C39.3335 8.20733 39.2822 8.34667 39.2822 8.508C39.2822 8.62533 39.3188 8.74267 39.3922 8.86C39.4655 8.96267 39.5755 9.058 39.7222 9.146C39.9422 9.278 40.2722 9.40267 40.7122 9.52C41.1668 9.62267 41.7022 9.73267 42.3182 9.85C43.3008 10.0113 44.1368 10.2167 44.8262 10.466C45.5155 10.7153 46.0582 11.0013 46.4542 11.324C46.8062 11.588 47.0555 11.8887 47.2022 12.226C47.3488 12.5633 47.4222 12.9447 47.4222 13.37C47.4222 14.1327 47.1802 14.8073 46.6962 15.394C46.2122 15.966 45.5375 16.4133 44.6722 16.736C43.8215 17.0587 42.8388 17.22 41.7242 17.22ZM53.4816 17V1.996H57.0016V17H53.4816ZM50.6656 8.398V5.318H60.2576V8.398H50.6656ZM73.14 17.242C72.4653 17.242 71.8273 17.1613 71.226 17C70.6393 16.824 70.1187 16.5967 69.664 16.318C69.2093 16.0393 68.8353 15.7313 68.542 15.394C68.2487 15.0567 68.0653 14.7267 67.992 14.404L68.982 14.272L68.784 16.978H65.506V0.72H69.048V8.112L68.08 7.98C68.168 7.61333 68.3587 7.26133 68.652 6.924C68.9453 6.58667 69.3193 6.27867 69.774 6C70.2287 5.72133 70.742 5.50133 71.314 5.34C71.9007 5.164 72.5167 5.076 73.162 5.076C74.3207 5.076 75.3547 5.34 76.264 5.868C77.188 6.38133 77.9213 7.1 78.464 8.024C79.0067 8.93333 79.278 9.97467 79.278 11.148C79.278 12.336 79.0067 13.392 78.464 14.316C77.936 15.2253 77.21 15.944 76.286 16.472C75.3767 16.9853 74.328 17.242 73.14 17.242ZM72.326 14.25C73.03 14.25 73.646 14.118 74.174 13.854C74.702 13.59 75.1053 13.2307 75.384 12.776C75.6773 12.3067 75.824 11.764 75.824 11.148C75.824 10.532 75.6773 9.99667 75.384 9.542C75.0907 9.07267 74.6873 8.71333 74.174 8.464C73.6607 8.21467 73.0447 8.09 72.326 8.09C71.622 8.09 71.006 8.21467 70.478 8.464C69.95 8.71333 69.5393 9.07267 69.246 9.542C68.9527 9.99667 68.806 10.532 68.806 11.148C68.806 11.764 68.9527 12.3067 69.246 12.776C69.5393 13.2307 69.95 13.59 70.478 13.854C71.006 14.118 71.622 14.25 72.326 14.25ZM89.0307 17.198C87.828 17.198 86.772 16.9413 85.8627 16.428C84.9534 15.9 84.242 15.1813 83.7287 14.272C83.2154 13.3627 82.9587 12.3287 82.9587 11.17C82.9587 9.982 83.2154 8.93333 83.7287 8.024C84.2567 7.1 84.9754 6.38133 85.8847 5.868C86.8087 5.34 87.8867 5.076 89.1187 5.076C89.808 5.076 90.446 5.164 91.0327 5.34C91.6194 5.516 92.14 5.75067 92.5947 6.044C93.0494 6.32267 93.416 6.638 93.6947 6.99C93.988 7.342 94.1714 7.694 94.2447 8.046L93.4307 8.09V5.318H96.9287V17H93.3647V13.942L94.1127 14.096C94.054 14.4773 93.878 14.8513 93.5847 15.218C93.2914 15.5847 92.9174 15.922 92.4627 16.23C92.008 16.5233 91.4874 16.758 90.9007 16.934C90.314 17.11 89.6907 17.198 89.0307 17.198ZM89.9547 14.228C90.688 14.228 91.3114 14.1033 91.8247 13.854C92.3527 13.59 92.756 13.2307 93.0347 12.776C93.328 12.3067 93.4747 11.7713 93.4747 11.17C93.4747 10.5393 93.328 9.99667 93.0347 9.542C92.756 9.08733 92.3527 8.728 91.8247 8.464C91.3114 8.2 90.688 8.068 89.9547 8.068C89.2507 8.068 88.6347 8.2 88.1067 8.464C87.5934 8.728 87.19 9.08733 86.8967 9.542C86.6034 9.99667 86.4567 10.5393 86.4567 11.17C86.4567 11.7713 86.6034 12.3067 86.8967 12.776C87.19 13.2307 87.5934 13.59 88.1067 13.854C88.6347 14.1033 89.2507 14.228 89.9547 14.228ZM103.319 17V5.318H106.663L106.817 9.454L105.915 9.146C106.12 8.38333 106.465 7.70133 106.949 7.1C107.447 6.484 108.027 5.99267 108.687 5.626C109.361 5.25933 110.065 5.076 110.799 5.076C111.224 5.076 111.627 5.12 112.009 5.208C112.405 5.296 112.742 5.406 113.021 5.538L112.053 9.366C111.803 9.19 111.466 9.058 111.041 8.97C110.63 8.86733 110.219 8.816 109.809 8.816C109.339 8.816 108.921 8.88933 108.555 9.036C108.203 9.18267 107.895 9.388 107.631 9.652C107.381 9.90133 107.191 10.1873 107.059 10.51C106.927 10.818 106.861 11.1553 106.861 11.522V17H103.319ZM117.863 17V5.318H121.207L121.361 9.454L120.459 9.146C120.665 8.38333 121.009 7.70133 121.493 7.1C121.992 6.484 122.571 5.99267 123.231 5.626C123.906 5.25933 124.61 5.076 125.343 5.076C125.769 5.076 126.172 5.12 126.553 5.208C126.949 5.296 127.287 5.406 127.565 5.538L126.597 9.366C126.348 9.19 126.011 9.058 125.585 8.97C125.175 8.86733 124.764 8.816 124.353 8.816C123.884 8.816 123.466 8.88933 123.099 9.036C122.747 9.18267 122.439 9.388 122.175 9.652C121.926 9.90133 121.735 10.1873 121.603 10.51C121.471 10.818 121.405 11.1553 121.405 11.522V17H117.863ZM133.838 22.06L137.05 15.812L136.918 17.55L130.494 5.318H134.564L137.512 11.478C137.747 11.918 137.96 12.3727 138.15 12.842C138.356 13.2967 138.532 13.744 138.678 14.184L137.93 14.316C138.077 13.964 138.253 13.546 138.458 13.062C138.664 12.578 138.876 12.0867 139.096 11.588L141.868 5.318H145.916L139.888 17.066L137.424 22.06H133.838Z" fill="white"/>
</svg>
