<svg width="16" height="16" viewBox="0 0 16 16" fill="none" xmlns="http://www.w3.org/2000/svg">
<path d="M6.54191 0.499939C3.21259 0.499939 0.500244 3.21229 0.500244 6.54161C0.500244 9.87092 3.21259 12.5833 6.54191 12.5833C7.98206 12.5833 9.30596 12.0745 10.3456 11.2291L14.4334 15.3168C14.4909 15.3768 14.5599 15.4247 14.6363 15.4577C14.7126 15.4907 14.7947 15.5081 14.8779 15.509C14.961 15.5098 15.0435 15.494 15.1205 15.4626C15.1975 15.4312 15.2674 15.3847 15.3262 15.3259C15.385 15.2671 15.4315 15.1972 15.4629 15.1202C15.4944 15.0432 15.5101 14.9607 15.5093 14.8776C15.5084 14.7944 15.491 14.7123 15.458 14.6359C15.425 14.5596 15.3771 14.4906 15.3171 14.433L11.2294 10.3453C12.0748 9.30565 12.5836 7.98175 12.5836 6.54161C12.5836 3.21229 9.87123 0.499939 6.54191 0.499939ZM6.54191 1.74994C9.19568 1.74994 11.3336 3.88784 11.3336 6.54161C11.3336 7.83436 10.8237 9.00232 9.9965 9.86273C9.94551 9.90021 9.90051 9.94521 9.86304 9.9962C9.00263 10.8234 7.83467 11.3333 6.54191 11.3333C3.88814 11.3333 1.75024 9.19537 1.75024 6.54161C1.75024 3.88784 3.88814 1.74994 6.54191 1.74994Z" fill="white"/>
</svg>
